# xmcd CD database file
#
# Track frame offsets:
#	182
#	16077
#	28050
#	43350
#	56960
#	77517
#	92332
#	103440
#	118817
#	134550
#	145837
#	161372
#	177717
#	192682
#	208275
#	222537
#
# Disc length: 3175 seconds
#
# Revision: 0
# Processed by: cddbd v1.5.2PL0 Copyright (c) Steve Scherf et al.
# Submitted via: CDex 1.70beta2
#
DISCID=fd0c6510
DTITLE=AA.VV - Son Tornate A Fiorire Le Rose - Cd1
DYEAR=1991
DGENRE=Musica Italiana
TTITLE0=Claudio Villa - Come Le Rose (Lama-Genise)
TTITLE1=Luciano Virgili - Creola (Ripp)
TTITLE2=Luciano Tajoli - Cara Piccina (Lama-Bovio)
TTITLE3=Aurelio Fierro - Scettico Blues (Rulli-De Filippis)
TTITLE4=Gino Bechi - Capinera (Raimondo-Bracchi)
TTITLE5=Giorgio Consolini - Re Di Cuori (Schoor-Cherubini)
TTITLE6=Achille Togliani - Chi Siete (Cosentino-De Filippis)
TTITLE7=Carlo Buti - Addio Signora (Simi-Neri)
TTITLE8=Aurelio Fierro - Come Una Coppa Di Champagne (Borella-Rampaldi)
TTITLE9=Ferruccio Tagliavini - Rondine Al Nido (De Crescenzo-Sica)
TTITLE10=Claudio Villa - Balocchi E Profumi (E.A.Mario)
TTITLE11=Giorgio Consolini - Ciondolo D'Oro (Guglielmetti-Cherubini)
TTITLE12=Luciano Tajoli - Il Tango Delle Capinere (Bixio-Cherubini)
TTITLE13=Carlo Buti - Le Rose Rosse (E.A.Mario)
TTITLE14=Giuseppe Di Stefano - Ti Voglio Tanto Bene (De Curtis-Furnò)
TTITLE15=Luciano Virgili - Vipera (E.A.Mario)
EXTD=YEAR: 1991
EXTT0=
EXTT1=
EXTT2=
EXTT3=
EXTT4=
EXTT5=
EXTT6=
EXTT7=
EXTT8=
EXTT9=
EXTT10=
EXTT11=
EXTT12=
EXTT13=
EXTT14=
EXTT15=
PLAYORDER=
